<svg width="300" height="300" viewBox="0 0 300 300" fill="none" xmlns="http://www.w3.org/2000/svg">
<g clip-path="url(#clip0_111_169)">
<mask id="mask0_111_169" style="mask-type:luminance" maskUnits="userSpaceOnUse" x="0" y="0" width="300" height="300">
<path d="M300 0H0V300H300V0Z" fill="white"/>
</mask>
<g mask="url(#mask0_111_169)">
<path d="M28.9035 0L30 1.13028L2.2575 28.1398L30 55.1494L28.9035 56.2797L0 28.1398L28.9035 0Z" fill="#D9D9D9"/>
<path d="M51.0965 56.2797L50 55.1494L77.7425 28.1398L50 1.13028L51.0965 0L80 28.1398L51.0965 56.2797Z" fill="#D9D9D9"/>
<path d="M8 85C11.866 85 15 81.866 15 78C15 74.134 11.866 71 8 71C4.13401 71 1 74.134 1 78C1 81.866 4.13401 85 8 85Z" fill="#D9D9D9"/>
<path d="M27 85C30.866 85 34 81.866 34 78C34 74.134 30.866 71 27 71C23.134 71 20 74.134 20 78C20 81.866 23.134 85 27 85Z" fill="#D9D9D9"/>
<path d="M27 84C30.3137 84 33 81.3137 33 78C33 74.6863 30.3137 72 27 72C23.6863 72 21 74.6863 21 78C21 81.3137 23.6863 84 27 84Z" fill="white"/>
<path d="M53 78L41 84.9282V71.0718L53 78Z" fill="#D9D9D9"/>
<path d="M71.389 71H67.611C67.2736 71 67 71.2394 67 71.5346V84.4654C67 84.7606 67.2736 85 67.611 85H71.389C71.7264 85 72 84.7606 72 84.4654V71.5346C72 71.2394 71.7264 71 71.389 71Z" fill="#D9D9D9"/>
<path d="M65.389 71H61.611C61.2736 71 61 71.2394 61 71.5346V84.4654C61 84.7606 61.2736 85 61.611 85H65.389C65.7264 85 66 84.7606 66 84.4654V71.5346C66 71.2394 65.7264 71 65.389 71Z" fill="#D9D9D9"/>
</g>
</g>
<defs>
<clipPath id="clip0_111_169">
<rect width="300" height="300" fill="white"/>
</clipPath>
</defs>
</svg>
